{
	"asset":{
		"generator":"Khronos glTF Blender I/O v5.0.21",
		"version":"2.0"
	},
	"scene":0,
	"scenes":[
		{
			"name":"Scene",
			"nodes":[
				0
			]
		}
	],
	"nodes":[
		{
			"mesh":0,
			"name":"Plane"
		}
	],
	"materials":[
		{
			"alphaMode":"BLEND",
			"doubleSided":true,
			"name":"islachunktextura",
			"pbrMetallicRoughness":{
				"baseColorTexture":{
					"index":0
				},
				"metallicFactor":0,
				"roughnessFactor":0.5
			}
		}
	],
	"meshes":[
		{
			"name":"islachunk-col",
			"primitives":[
				{
					"attributes":{
						"POSITION":0,
						"NORMAL":1,
						"TEXCOORD_0":2,
						"TANGENT":3
					},
					"indices":4,
					"material":0
				}
			]
		}
	],
	"textures":[
		{
			"sampler":0,
			"source":0
		}
	],
	"images":[
		{
			"mimeType":"image/png",
			"name":"rocky_terrain_02_diff_4k.jpg",
			"uri":"../../woldvirtual/texturas/rocky_terrain_02_4k.blend%20%282%29/textures/rocky_terrain_02_diff_4k.jpg"
		}
	],
	"accessors":[
		{
			"bufferView":0,
			"componentType":5126,
			"count":28576,
			"max":[
				256,
				117.34298706054688,
				256
			],
			"min":[
				-256,
				0,
				-256
			],
			"type":"VEC3"
		},
		{
			"bufferView":1,
			"componentType":5126,
			"count":28576,
			"type":"VEC3"
		},
		{
			"bufferView":2,
			"componentType":5126,
			"count":28576,
			"type":"VEC2"
		},
		{
			"bufferView":3,
			"componentType":5126,
			"count":28576,
			"type":"VEC4"
		},
		{
			"bufferView":4,
			"componentType":5123,
			"count":61206,
			"type":"SCALAR"
		}
	],
	"bufferViews":[
		{
			"buffer":0,
			"byteLength":342912,
			"byteOffset":0,
			"target":34962
		},
		{
			"buffer":0,
			"byteLength":342912,
			"byteOffset":342912,
			"target":34962
		},
		{
			"buffer":0,
			"byteLength":228608,
			"byteOffset":685824,
			"target":34962
		},
		{
			"buffer":0,
			"byteLength":457216,
			"byteOffset":914432,
			"target":34962
		},
		{
			"buffer":0,
			"byteLength":122412,
			"byteOffset":1371648,
			"target":34963
		}
	],
	"samplers":[
		{
			"magFilter":9729,
			"minFilter":9987
		}
	],
	"buffers":[
		{
			"byteLength":1494060,
			"uri":"islachunk-8388c97f7d6f71fc7a626b5a1ec42fc2.bin"
		}
	]
}
